<svg width="253" height="73" viewBox="0 0 253 73" fill="none" xmlns="http://www.w3.org/2000/svg">
<rect y="0.30957" width="252.289" height="72.3811" rx="12" fill="white"/>
<path d="M33.2455 34.5985H15.0582C15.0582 32.2679 15.0582 32.6516 15.0582 31.6852C15.0582 28.8761 15.6574 28.0992 18.0355 28.0992C21.2173 28.0992 29.9352 28.0992 33.3263 28.0992C34.1539 28.0992 34.8245 27.256 34.8245 26.2044C34.8245 25.167 34.1539 24.3096 33.3263 24.3096C30.0541 24.3096 22.3302 24.3096 18.0355 24.3096C13.6884 24.3096 12 26.2186 12 31.6805C12 33.2958 12 30.6004 12 35.0296C12 38.8288 12 42.6326 12 46.4413C12 47.5071 12.6849 48.3645 13.5267 48.3645C14.378 48.3645 15.0582 47.5071 15.0582 46.4413C15.0582 44.4659 15.0582 42.5047 15.0582 40.5436C15.0582 40.1978 15.0582 39.852 15.0582 39.5062V37.7487H33.2407C34.1159 37.7487 34.8245 37.0429 34.8245 36.1712C34.8245 35.3044 34.1206 34.5985 33.2455 34.5985Z" fill="#EB5E45"/>
<path d="M39.8245 46.6024C39.8245 39.8568 39.8245 33.1301 39.8245 26.3987C39.8245 25.3329 40.5094 24.4707 41.356 24.4707C42.2026 24.4707 42.8922 25.3329 42.8922 26.3987C42.8922 33.1301 42.8922 39.8568 42.8922 46.6024C42.8922 47.6682 42.2026 48.5257 41.356 48.5257C40.5094 48.5257 39.8245 47.6682 39.8245 46.6024Z" fill="#807D7D"/>
<path d="M48.0288 46.6262C48.0288 39.8806 48.0288 33.135 48.0288 26.3752C48.0288 25.3283 48.7042 24.4756 49.5365 24.4756C54.5351 24.4756 59.5338 24.4756 64.5325 24.4756C70.587 24.4756 71.4241 28.4168 71.4241 30.7712C71.4241 33.6561 70.1637 35.4893 68.071 36.2283C70.8058 37.1094 71.9472 39.3879 71.9472 42.0976C71.9472 45.6409 69.9402 48.5258 64.8987 48.5258C59.7811 48.5258 54.6588 48.5258 49.5365 48.5258C48.7089 48.5258 48.0288 47.6826 48.0288 46.6262ZM64.9795 34.5324C67.2434 34.5324 68.4895 33.3671 68.4895 31.2496C68.4895 29.2127 67.3528 27.9052 64.9795 27.9052C60.3281 27.9052 55.6671 27.9052 51.0156 27.9052C51.0156 30.1222 51.0156 32.3107 51.0156 34.5277C55.6671 34.5324 60.3281 34.5324 64.9795 34.5324ZM51.0156 37.91C51.0156 40.2975 51.0156 42.6897 51.0156 45.0867C55.7622 45.0867 60.5136 45.0867 65.2554 45.0867C68.3041 45.0867 68.9414 43.2108 68.9414 41.6712C68.9414 39.838 68.0234 37.91 65.2554 37.91C60.5136 37.91 55.7622 37.91 51.0156 37.91Z" fill="#807D7D"/>
<path d="M97.9868 34.6366H79.2383C79.2383 34.4898 79.2383 34.3098 79.2383 34.1014C79.2383 33.5897 79.2383 32.9692 79.2383 32.7134C79.2383 29.2648 79.7805 28.1658 83.2049 28.1658C88.1798 28.1658 93.1546 28.1658 98.1295 28.1658C98.9048 28.1658 99.5421 27.3368 99.5421 26.3278C99.5421 25.3046 98.9048 24.4756 98.1295 24.4756C92.8883 24.4756 87.6518 24.4756 82.4154 24.4756C78.1587 24.4756 76.2229 27.5168 76.2229 31.567C76.2229 31.6144 76.2229 32.6944 76.2229 34.1061C76.2229 35.603 76.2229 37.4836 76.2229 38.8906C76.2229 39.0516 76.2229 39.1985 76.2229 39.3406C76.2229 40.5343 76.2229 41.4012 76.2229 41.4344C76.2229 45.4798 78.1587 48.5258 82.4154 48.5258C87.6518 48.5258 92.8883 48.5258 98.1295 48.5258C98.9095 48.5258 99.5421 47.7015 99.5421 46.6878C99.5421 45.6693 98.9048 44.8261 98.1295 44.8261C93.1546 44.8261 88.1798 44.8261 83.2049 44.8261C79.7805 44.8261 79.2383 43.7366 79.2383 40.2927C79.2383 40.1032 79.2383 39.7195 79.2383 39.3406C79.2383 39.1937 79.2383 39.0374 79.2383 38.8906C79.2383 38.5921 79.2383 38.36 79.2383 38.2653H79.243V37.7915H97.9868C98.8477 37.7915 99.5421 37.0999 99.5421 36.2425V36.1904C99.5421 35.333 98.8477 34.6366 97.9868 34.6366Z" fill="#807D7D"/>
<path d="M126.547 46.1237C126.547 46.1237 127.008 47.8101 125.691 48.4117C124.383 49.0228 123.674 47.0522 123.674 47.0522L119.717 37.9096H106.937V46.6779C106.937 46.6779 106.966 48.3549 105.401 48.5159C103.836 48.677 103.874 46.7632 103.874 46.7632V46.7253V26.2611C103.874 26.2611 103.874 24.7026 105.258 24.4705H121.011C121.011 24.4705 123.607 24.4136 125.481 26.0574C127.355 27.6964 129.662 35.1242 122.59 37.5543L126.547 46.1237ZM121.462 34.7736C122.713 34.7831 124.749 32.8504 124.107 30.3918C123.465 27.9333 121.638 27.8954 121.638 27.8954L106.876 27.7817L106.942 34.7594L121.462 34.7736Z" fill="#807D7D"/>
<path d="M153.856 46.1237C153.856 46.1237 154.318 47.8101 153 48.4117C151.692 49.0228 150.984 47.0522 150.984 47.0522L147.027 37.9096H134.247V46.6779C134.247 46.6779 134.275 48.3549 132.711 48.5159C131.146 48.677 131.184 46.7632 131.184 46.7632V46.7253V26.2611C131.184 26.2611 131.184 24.7026 132.568 24.4705H148.32C148.32 24.4705 150.917 24.4136 152.791 26.0574C154.665 27.7011 156.972 35.1242 149.899 37.5543L153.856 46.1237ZM148.772 34.7736C150.023 34.7831 152.058 32.8504 151.416 30.3918C150.774 27.9333 148.948 27.8954 148.948 27.8954L134.185 27.7817L134.252 34.7594L148.772 34.7736Z" fill="#807D7D"/>
<path d="M171.583 24.4756C162.851 24.4756 158.342 27.1852 158.342 36.4841C158.342 44.0966 161.334 47.2942 167.155 48.2226C167.274 48.2321 171.407 48.5637 174.199 45.5651C174.308 45.442 174.418 45.3093 174.532 45.1767C174.598 45.0961 174.665 45.0156 174.732 44.9303C174.76 44.8924 174.789 44.8498 174.822 44.8119C173.842 44.9114 172.767 44.954 171.583 44.954C164.977 44.954 161.495 43.8219 161.495 36.4888C161.495 29.2032 164.977 28.0474 171.583 28.0474C178.194 28.0474 181.676 29.2079 181.676 36.4888C181.676 38.6821 181.357 40.3117 180.743 41.5291H180.753C180.753 41.5291 179.326 46.1194 171.892 48.5211C180.415 48.4547 184.824 45.7214 184.824 36.4841C184.824 27.1852 180.311 24.4756 171.583 24.4756Z" fill="#807D7D"/>
<path d="M209.66 47.6587C208.928 45.8254 208.195 43.9874 207.473 42.1542C202.502 42.1542 197.528 42.1542 192.557 42.1542C191.825 43.9874 191.097 45.8254 190.374 47.6587C190.008 48.573 189.123 48.9377 188.401 48.5019C187.668 48.0282 187.378 46.9197 187.739 46.0007C189.946 40.4488 192.139 34.8875 194.341 29.3498C195.568 26.2139 197.042 24.3096 199.996 24.3096C202.978 24.3096 204.433 26.2186 205.684 29.3498C207.886 34.8875 210.093 40.4488 212.29 45.9912C212.647 46.915 212.362 48.0329 211.629 48.5066C210.906 48.9424 210.022 48.5824 209.66 47.6587ZM202.674 30.1504C202.084 28.6724 201.366 27.7582 199.996 27.7582C198.664 27.7582 197.932 28.6772 197.342 30.1504C196.21 33.0021 195.078 35.8539 193.946 38.7009C197.979 38.7009 202.013 38.7009 206.046 38.7009C204.918 35.8539 203.791 33.0021 202.674 30.1504Z" fill="#807D7D"/>
<path d="M237.136 36.4936C237.136 41.9176 236.075 44.7267 231.196 44.7267C227.243 44.7267 223.296 44.7267 219.348 44.7267C219.348 39.2269 219.348 33.7271 219.348 28.2274C223.296 28.2274 227.243 28.2274 231.196 28.2274C236.08 28.2321 237.136 31.1217 237.136 36.4936ZM216.281 46.6262C216.281 47.6826 216.961 48.5258 217.788 48.5258H218.692C222.858 48.5258 227.029 48.5258 231.2 48.5258C237.811 48.5258 240.289 44.523 240.289 36.4983C240.289 28.5542 237.83 24.4756 231.2 24.4756C227.124 24.4756 223.058 24.4756 218.987 24.4756H217.793C216.961 24.4756 216.285 25.333 216.285 26.3752V27.4789C216.285 33.3482 216.285 39.1985 216.285 45.0535V46.6262H216.281Z" fill="#807D7D"/>
</svg>
