<svg width="234" height="30" viewBox="0 0 234 30" fill="none" xmlns="http://www.w3.org/2000/svg">
<path d="M24.2513 14.1781H6.06403C6.06403 11.8475 6.06403 12.2312 6.06403 11.2648C6.06403 8.45571 6.6633 7.67883 9.04135 7.67883C12.2232 7.67883 20.9411 7.67883 24.3322 7.67883C25.1598 7.67883 25.8304 6.83562 25.8304 5.78399C25.8304 4.74657 25.1598 3.88915 24.3322 3.88915C21.06 3.88915 13.3361 3.88915 9.04135 3.88915C4.69427 3.88915 3.00586 5.7982 3.00586 11.2601C3.00586 12.8754 3.00586 10.18 3.00586 14.6092C3.00586 18.4083 3.00586 22.2122 3.00586 26.0208C3.00586 27.0867 3.69074 27.9441 4.53257 27.9441C5.38391 27.9441 6.06403 27.0867 6.06403 26.0208C6.06403 24.0455 6.06403 22.0843 6.06403 20.1232C6.06403 19.7774 6.06403 19.4316 6.06403 19.0857V17.3283H24.2466C25.1217 17.3283 25.8304 16.6225 25.8304 15.7508C25.8304 14.8839 25.1265 14.1781 24.2513 14.1781Z" fill="#EB5E45"/>
<path d="M30.577 26.0208C30.577 19.2752 30.577 12.5486 30.577 5.81715C30.577 4.7513 31.2618 3.88915 32.1084 3.88915C32.955 3.88915 33.6446 4.7513 33.6446 5.81715C33.6446 12.5486 33.6446 19.2752 33.6446 26.0208C33.6446 27.0867 32.955 27.9441 32.1084 27.9441C31.2618 27.9441 30.577 27.0867 30.577 26.0208Z" fill="#807D7D"/>
<path d="M38.7812 26.0445C38.7812 19.2989 38.7812 12.5533 38.7812 5.79346C38.7812 4.74657 39.4566 3.89389 40.2889 3.89389C45.2876 3.89389 50.2862 3.89389 55.2849 3.89389C61.3394 3.89389 62.1765 7.83515 62.1765 10.1895C62.1765 13.0744 60.9161 14.9076 58.8234 15.6466C61.5582 16.5277 62.6997 18.8063 62.6997 21.5159C62.6997 25.0592 60.6926 27.9441 55.6511 27.9441C50.5336 27.9441 45.4112 27.9441 40.2889 27.9441C39.4614 27.9441 38.7812 27.1009 38.7812 26.0445ZM55.732 13.9507C57.9959 13.9507 59.242 12.7854 59.242 10.6679C59.242 8.63098 58.1053 7.32354 55.732 7.32354C51.0805 7.32354 46.4195 7.32354 41.7681 7.32354C41.7681 9.5405 41.7681 11.729 41.7681 13.946C46.4195 13.9507 51.0805 13.9507 55.732 13.9507ZM41.7681 17.3283C41.7681 19.7158 41.7681 22.108 41.7681 24.505C46.5147 24.505 51.266 24.505 56.0078 24.505C59.0565 24.505 59.6938 22.6291 59.6938 21.0895C59.6938 19.2563 58.7759 17.3283 56.0078 17.3283C51.266 17.3283 46.5147 17.3283 41.7681 17.3283Z" fill="#807D7D"/>
<path d="M88.7393 14.055H69.9907C69.9907 13.9081 69.9907 13.7281 69.9907 13.5197C69.9907 13.0081 69.9907 12.3875 69.9907 12.1317C69.9907 8.68309 70.5329 7.58408 73.9573 7.58408C78.9322 7.58408 83.9071 7.58408 88.882 7.58408C89.6572 7.58408 90.2945 6.75509 90.2945 5.74609C90.2945 4.72288 89.6572 3.89389 88.882 3.89389C83.6407 3.89389 78.4043 3.89389 73.1678 3.89389C68.9111 3.89389 66.9754 6.9351 66.9754 10.9853C66.9754 11.0327 66.9754 12.1127 66.9754 13.5244C66.9754 15.0213 66.9754 16.9019 66.9754 18.3089C66.9754 18.4699 66.9754 18.6168 66.9754 18.7589C66.9754 19.9526 66.9754 20.8195 66.9754 20.8527C66.9754 24.8982 68.9111 27.9441 73.1678 27.9441C78.4043 27.9441 83.6407 27.9441 88.882 27.9441C89.662 27.9441 90.2945 27.1198 90.2945 26.1061C90.2945 25.0876 89.6572 24.2444 88.882 24.2444C83.9071 24.2444 78.9322 24.2444 73.9573 24.2444C70.5329 24.2444 69.9907 23.1549 69.9907 19.711C69.9907 19.5216 69.9907 19.1378 69.9907 18.7589C69.9907 18.612 69.9907 18.4557 69.9907 18.3089C69.9907 18.0104 69.9907 17.7783 69.9907 17.6836H69.9955V17.2099H88.7393C89.6001 17.2099 90.2945 16.5182 90.2945 15.6608V15.6087C90.2945 14.7513 89.6001 14.055 88.7393 14.055Z" fill="#807D7D"/>
<path d="M117.299 25.5423C117.299 25.5423 117.761 27.2287 116.443 27.8304C115.135 28.4414 114.426 26.4708 114.426 26.4708L110.469 17.3282H97.6898V26.0966C97.6898 26.0966 97.7183 27.7735 96.1536 27.9346C94.5888 28.0956 94.6269 26.1818 94.6269 26.1818V26.1439V5.67972C94.6269 5.67972 94.6268 4.12121 96.0109 3.8891H111.763C111.763 3.8891 114.36 3.83225 116.234 5.47602C118.108 7.11506 120.414 14.5428 113.342 16.9729L117.299 25.5423ZM112.215 14.1923C113.466 14.2017 115.501 12.269 114.859 9.81046C114.217 7.35191 112.391 7.31401 112.391 7.31401L97.6279 7.20032L97.6945 14.1781L112.215 14.1923Z" fill="#807D7D"/>
<path d="M144.609 25.5423C144.609 25.5423 145.07 27.2287 143.753 27.8304C142.445 28.4414 141.736 26.4708 141.736 26.4708L137.779 17.3282H124.999V26.0966C124.999 26.0966 125.028 27.7735 123.463 27.9346C121.898 28.0956 121.936 26.1818 121.936 26.1818V26.1439V5.67972C121.936 5.67972 121.936 4.12121 123.32 3.8891H139.073C139.073 3.8891 141.669 3.83225 143.543 5.47602C145.417 7.11979 147.724 14.5428 140.652 16.9729L144.609 25.5423ZM139.524 14.1923C140.775 14.2017 142.811 12.269 142.169 9.81046C141.527 7.35191 139.7 7.31401 139.7 7.31401L124.938 7.20032L125.004 14.1781L139.524 14.1923Z" fill="#807D7D"/>
<path d="M162.336 3.89362C153.603 3.89362 149.095 6.60324 149.095 15.9021C149.095 23.5147 152.086 26.7122 157.908 27.6407C158.026 27.6501 162.16 27.9817 164.951 24.9831C165.061 24.86 165.17 24.7273 165.284 24.5947C165.351 24.5142 165.417 24.4336 165.484 24.3484C165.513 24.3105 165.541 24.2678 165.574 24.23C164.595 24.3294 163.52 24.3721 162.336 24.3721C155.729 24.3721 152.248 23.2399 152.248 15.9069C152.248 8.62124 155.729 7.46539 162.336 7.46539C168.946 7.46539 172.428 8.62597 172.428 15.9069C172.428 18.1002 172.109 19.7297 171.496 20.9471H171.505C171.505 20.9471 170.078 25.5374 162.645 27.9391C171.168 27.8728 175.576 25.1395 175.576 15.9021C175.576 6.60324 171.063 3.89362 162.336 3.89362Z" fill="#807D7D"/>
<path d="M200.413 27.0772C199.68 25.244 198.948 23.406 198.225 21.5727C193.255 21.5727 188.28 21.5727 183.31 21.5727C182.577 23.406 181.85 25.244 181.127 27.0772C180.761 27.9915 179.876 28.3562 179.153 27.9204C178.421 27.4467 178.13 26.3382 178.492 25.4192C180.699 19.8674 182.891 14.306 185.093 8.76836C186.32 5.6324 187.795 3.72809 190.748 3.72809C193.73 3.72809 195.186 5.63714 196.437 8.76836C198.639 14.306 200.846 19.8674 203.043 25.4098C203.4 26.3335 203.114 27.4514 202.382 27.9252C201.659 28.361 200.774 28.0009 200.413 27.0772ZM193.426 9.56893C192.836 8.09095 192.118 7.17669 190.748 7.17669C189.417 7.17669 188.684 8.09569 188.094 9.56893C186.963 12.4207 185.831 15.2724 184.699 18.1194C188.732 18.1194 192.765 18.1194 196.798 18.1194C195.671 15.2724 194.544 12.4207 193.426 9.56893Z" fill="#807D7D"/>
<path d="M227.888 15.9119C227.888 21.3359 226.828 24.145 221.948 24.145C217.996 24.145 214.048 24.145 210.101 24.145C210.101 18.6452 210.101 13.1454 210.101 7.64567C214.048 7.64567 217.996 7.64567 221.948 7.64567C226.833 7.6504 227.888 10.54 227.888 15.9119ZM207.033 26.0445C207.033 27.1009 207.713 27.9441 208.541 27.9441H209.444C213.611 27.9441 217.782 27.9441 221.953 27.9441C228.564 27.9441 231.042 23.9413 231.042 15.9166C231.042 7.97252 228.583 3.89389 221.953 3.89389C217.877 3.89389 213.81 3.89389 209.739 3.89389H208.545C207.713 3.89389 207.038 4.7513 207.038 5.79346V6.89721C207.038 12.7665 207.038 18.6168 207.038 24.4718V26.0445H207.033Z" fill="#807D7D"/>
</svg>
