<svg width="234" height="30" viewBox="0 0 234 30" fill="none" xmlns="http://www.w3.org/2000/svg">
<path d="M24.2513 14.1776H6.06403C6.06403 11.847 6.06403 12.2307 6.06403 11.2643C6.06403 8.45523 6.6633 7.67834 9.04135 7.67834C12.2232 7.67834 20.9411 7.67834 24.3322 7.67834C25.1598 7.67834 25.8304 6.83514 25.8304 5.78351C25.8304 4.74609 25.1598 3.88867 24.3322 3.88867C21.06 3.88867 13.3361 3.88867 9.04135 3.88867C4.69427 3.88867 3.00586 5.79772 3.00586 11.2596C3.00586 12.8749 3.00586 10.1795 3.00586 14.6087C3.00586 18.4079 3.00586 22.2117 3.00586 26.0204C3.00586 27.0862 3.69074 27.9436 4.53257 27.9436C5.38391 27.9436 6.06403 27.0862 6.06403 26.0204C6.06403 24.045 6.06403 22.0838 6.06403 20.1227C6.06403 19.7769 6.06403 19.4311 6.06403 19.0853V17.3278H24.2466C25.1217 17.3278 25.8304 16.622 25.8304 15.7503C25.8304 14.8835 25.1265 14.1776 24.2513 14.1776Z" fill="white"/>
<path d="M30.5771 26.0213C30.5771 19.2757 30.5771 12.5491 30.5771 5.81764C30.5771 4.7518 31.262 3.88965 32.1086 3.88965C32.9552 3.88965 33.6448 4.7518 33.6448 5.81764C33.6448 12.5491 33.6448 19.2757 33.6448 26.0213C33.6448 27.0872 32.9552 27.9446 32.1086 27.9446C31.262 27.9446 30.5771 27.0872 30.5771 26.0213Z" fill="white"/>
<path d="M38.7815 26.0449C38.7815 19.2993 38.7815 12.5537 38.7815 5.79386C38.7815 4.74696 39.4569 3.89429 40.2892 3.89429C45.2878 3.89429 50.2865 3.89429 55.2852 3.89429C61.3397 3.89429 62.1767 7.83555 62.1767 10.1899C62.1767 13.0748 60.9164 14.908 58.8237 15.647C61.5584 16.5281 62.6999 18.8066 62.6999 21.5163C62.6999 25.0596 60.6928 27.9445 55.6514 27.9445C50.5338 27.9445 45.4115 27.9445 40.2892 27.9445C39.4616 27.9445 38.7815 27.1013 38.7815 26.0449ZM55.7322 13.9511C57.9961 13.9511 59.2422 12.7858 59.2422 10.6683C59.2422 8.63138 58.1055 7.32394 55.7322 7.32394C51.0808 7.32394 46.4198 7.32394 41.7683 7.32394C41.7683 9.5409 41.7683 11.7294 41.7683 13.9464C46.4198 13.9511 51.0808 13.9511 55.7322 13.9511ZM41.7683 17.3287C41.7683 19.7162 41.7683 22.1084 41.7683 24.5054C46.5149 24.5054 51.2663 24.5054 56.0081 24.5054C59.0567 24.5054 59.6941 22.6295 59.6941 21.0899C59.6941 19.2567 58.7761 17.3287 56.0081 17.3287C51.2663 17.3287 46.5149 17.3287 41.7683 17.3287Z" fill="white"/>
<path d="M88.7395 14.0553H69.991C69.991 13.9085 69.991 13.7285 69.991 13.5201C69.991 13.0085 69.991 12.3879 69.991 12.1321C69.991 8.68349 70.5331 7.58448 73.9575 7.58448C78.9324 7.58448 83.9073 7.58448 88.8822 7.58448C89.6574 7.58448 90.2947 6.75549 90.2947 5.74649C90.2947 4.72328 89.6574 3.89429 88.8822 3.89429C83.6409 3.89429 78.4045 3.89429 73.168 3.89429C68.9113 3.89429 66.9756 6.9355 66.9756 10.9857C66.9756 11.0331 66.9756 12.1131 66.9756 13.5248C66.9756 15.0217 66.9756 16.9023 66.9756 18.3093C66.9756 18.4703 66.9756 18.6172 66.9756 18.7593C66.9756 19.953 66.9756 20.8199 66.9756 20.8531C66.9756 24.8985 68.9113 27.9445 73.168 27.9445C78.4045 27.9445 83.6409 27.9445 88.8822 27.9445C89.6622 27.9445 90.2947 27.1202 90.2947 26.1065C90.2947 25.088 89.6574 24.2448 88.8822 24.2448C83.9073 24.2448 78.9324 24.2448 73.9575 24.2448C70.5331 24.2448 69.991 23.1553 69.991 19.7114C69.991 19.5219 69.991 19.1382 69.991 18.7593C69.991 18.6124 69.991 18.4561 69.991 18.3093C69.991 18.0108 69.991 17.7787 69.991 17.684H69.9957V17.2103H88.7395C89.6003 17.2103 90.2947 16.5186 90.2947 15.6612V15.6091C90.2947 14.7517 89.6003 14.0553 88.7395 14.0553Z" fill="white"/>
<path d="M117.299 25.5431C117.299 25.5431 117.761 27.2295 116.443 27.8311C115.135 28.4422 114.427 26.4716 114.427 26.4716L110.47 17.329H97.69V26.0974C97.69 26.0974 97.7185 27.7743 96.1537 27.9354C94.589 28.0964 94.627 26.1826 94.627 26.1826V26.1447V5.68051C94.627 5.68051 94.627 4.122 96.0111 3.88989H111.763C111.763 3.88989 114.36 3.83304 116.234 5.47681C118.108 7.11585 120.415 14.5436 113.342 16.9737L117.299 25.5431ZM112.215 14.1931C113.466 14.2025 115.502 12.2698 114.859 9.81125C114.217 7.3527 112.391 7.3148 112.391 7.3148L97.6281 7.20111L97.6947 14.1788L112.215 14.1931Z" fill="white"/>
<path d="M144.609 25.5431C144.609 25.5431 145.07 27.2295 143.753 27.8311C142.445 28.4422 141.736 26.4716 141.736 26.4716L137.779 17.329H125V26.0974C125 26.0974 125.028 27.7743 123.463 27.9354C121.899 28.0964 121.937 26.1826 121.937 26.1826V26.1447V5.68051C121.937 5.68051 121.937 4.122 123.321 3.88989H139.073C139.073 3.88989 141.67 3.83304 143.544 5.47681C145.417 7.12058 147.724 14.5436 140.652 16.9737L144.609 25.5431ZM139.525 14.1931C140.775 14.2025 142.811 12.2698 142.169 9.81125C141.527 7.3527 139.701 7.3148 139.701 7.3148L124.938 7.20111L125.004 14.1788L139.525 14.1931Z" fill="white"/>
<path d="M162.336 3.89453C153.604 3.89453 149.095 6.60415 149.095 15.9031C149.095 23.5156 152.086 26.7131 157.908 27.6416C158.027 27.651 162.16 27.9826 164.952 24.9841C165.061 24.8609 165.17 24.7283 165.284 24.5956C165.351 24.5151 165.418 24.4346 165.484 24.3493C165.513 24.3114 165.541 24.2688 165.575 24.2309C164.595 24.3303 163.52 24.373 162.336 24.373C155.729 24.373 152.248 23.2408 152.248 15.9078C152.248 8.62215 155.729 7.4663 162.336 7.4663C168.947 7.4663 172.428 8.62689 172.428 15.9078C172.428 18.1011 172.109 19.7306 171.496 20.9481H171.505C171.505 20.9481 170.079 25.5383 162.645 27.94C171.168 27.8737 175.577 25.1404 175.577 15.9031C175.577 6.60415 171.063 3.89453 162.336 3.89453Z" fill="white"/>
<path d="M200.413 27.0776C199.681 25.2444 198.948 23.4064 198.225 21.5731C193.255 21.5731 188.28 21.5731 183.31 21.5731C182.578 23.4064 181.85 25.2444 181.127 27.0776C180.761 27.9919 179.876 28.3567 179.153 27.9208C178.421 27.4471 178.131 26.3387 178.492 25.4197C180.699 19.8678 182.891 14.3064 185.094 8.76878C186.321 5.63283 187.795 3.72852 190.749 3.72852C193.731 3.72852 195.186 5.63756 196.437 8.76878C198.639 14.3064 200.846 19.8678 203.043 25.4102C203.4 26.3339 203.114 27.4519 202.382 27.9256C201.659 28.3614 200.774 28.0014 200.413 27.0776ZM193.426 9.56935C192.836 8.09138 192.118 7.17712 190.749 7.17712C189.417 7.17712 188.684 8.09611 188.095 9.56935C186.963 12.4211 185.831 15.2728 184.699 18.1198C188.732 18.1198 192.765 18.1198 196.798 18.1198C195.671 15.2728 194.544 12.4211 193.426 9.56935Z" fill="white"/>
<path d="M227.889 15.9123C227.889 21.3363 226.828 24.1454 221.948 24.1454C217.996 24.1454 214.048 24.1454 210.101 24.1454C210.101 18.6456 210.101 13.1458 210.101 7.64606C214.048 7.64606 217.996 7.64606 221.948 7.64606C226.833 7.6508 227.889 10.5404 227.889 15.9123ZM207.033 26.0449C207.033 27.1013 207.713 27.9445 208.541 27.9445H209.445C213.611 27.9445 217.782 27.9445 221.953 27.9445C228.564 27.9445 231.042 23.9417 231.042 15.917C231.042 7.97292 228.583 3.89429 221.953 3.89429C217.877 3.89429 213.811 3.89429 209.739 3.89429H208.546C207.713 3.89429 207.038 4.7517 207.038 5.79386V6.8976C207.038 12.7669 207.038 18.6172 207.038 24.4722V26.0449H207.033Z" fill="white"/>
</svg>
