<svg width="64" height="64" viewBox="0 0 64 64" fill="none" xmlns="http://www.w3.org/2000/svg">
<path d="M37.5709 35.618H31.1827C30.9175 35.618 30.6632 35.7233 30.4756 35.9109C30.2881 36.0984 30.1827 36.3528 30.1827 36.618V61.9994C30.1827 62.2646 30.2881 62.5189 30.4756 62.7065C30.6632 62.894 30.9175 62.9994 31.1827 62.9994H37.5709C37.8361 62.9994 38.0904 62.894 38.278 62.7065C38.4655 62.5189 38.5709 62.2646 38.5709 61.9994V36.618C38.5709 36.3528 38.4655 36.0984 38.278 35.9109C38.0904 35.7233 37.8361 35.618 37.5709 35.618ZM36.5709 60.9992H32.1827V37.618H36.5709V60.9992ZM25.709 42.3227H19.3207C19.0555 42.3227 18.8012 42.4281 18.6136 42.6156C18.4261 42.8032 18.3207 43.0575 18.3207 43.3227V61.9992C18.3207 62.2645 18.4261 62.5188 18.6136 62.7063C18.8012 62.8939 19.0555 62.9992 19.3207 62.9992H25.709C25.9742 62.9992 26.2286 62.8939 26.4161 62.7063C26.6036 62.5188 26.709 62.2645 26.709 61.9992V43.3227C26.709 43.0575 26.6036 42.8032 26.4161 42.6156C26.2286 42.4281 25.9742 42.3227 25.709 42.3227ZM24.709 60.9992H20.3207V44.3227H24.709V60.9992ZM49.4324 29.5864H43.0442C42.779 29.5864 42.5247 29.6917 42.3371 29.8793C42.1496 30.0668 42.0442 30.3211 42.0442 30.5864V61.9992C42.0442 62.2645 42.1496 62.5188 42.3371 62.7063C42.5247 62.8939 42.779 62.9992 43.0442 62.9992H49.4324C49.6976 62.9992 49.9519 62.8939 50.1395 62.7063C50.327 62.5188 50.4324 62.2645 50.4324 61.9992V30.5864C50.4324 30.3211 50.327 30.0668 50.1395 29.8793C49.9519 29.6917 49.6976 29.5864 49.4324 29.5864ZM48.4324 60.9991H44.0442V31.5864H48.4324V60.9991ZM13.8471 48.7439H7.45898C7.19377 48.7439 6.93941 48.8492 6.75188 49.0368C6.56434 49.2243 6.45898 49.4786 6.45898 49.7439V61.9991C6.45898 62.2643 6.56434 62.5187 6.75188 62.7062C6.93941 62.8938 7.19377 62.9991 7.45898 62.9991H13.8471C14.1123 62.9991 14.3667 62.8938 14.5542 62.7062C14.7418 62.5187 14.8471 62.2643 14.8471 61.9991V49.7439C14.8471 49.4786 14.7418 49.2243 14.5542 49.0368C14.3667 48.8492 14.1123 48.7439 13.8471 48.7439ZM12.8471 60.9991H8.45898V50.7439H12.8471V60.9991ZM56.9029 12.9965C57.0004 12.8067 57.0973 12.6167 57.1937 12.4264C57.8345 11.1589 57.5692 9.65436 56.5336 8.68236C56.3779 8.53634 56.2218 8.39084 56.0651 8.24586C55.5477 7.76586 55.2627 7.50149 55.1399 7.28861C55.017 7.07574 54.9305 6.69661 54.7734 6.00849C54.7261 5.80046 54.6783 5.59259 54.6297 5.38486C54.3059 4.00199 53.1355 3.01986 51.7174 2.94099C51.4797 2.92786 51.2681 2.91724 51.0781 2.90774C50.3732 2.87261 49.9849 2.85324 49.7539 2.76924C49.5229 2.68524 49.2129 2.45036 48.6502 2.02411C48.4803 1.89515 48.3099 1.7667 48.1392 1.63874C47.0022 0.787738 45.4744 0.787738 44.3374 1.63874C44.1666 1.7667 43.9963 1.89515 43.8264 2.02411C43.2637 2.45036 42.9539 2.68511 42.7227 2.76924C42.4916 2.85336 42.1034 2.87274 41.3985 2.90774C41.2085 2.91724 40.9969 2.92774 40.7594 2.94099C39.3414 3.01986 38.1709 4.00186 37.847 5.38474C37.7984 5.59255 37.7505 5.80051 37.7032 6.00861C37.5462 6.69674 37.4597 7.07574 37.3369 7.28861C37.214 7.50149 36.9289 7.76599 36.4115 8.24599C36.2549 8.39099 36.0988 8.53645 35.9431 8.68236C34.9075 9.65436 34.6421 11.159 35.2829 12.4264C35.3792 12.6167 35.4762 12.8068 35.5737 12.9966C35.8957 13.6246 36.0732 13.9706 36.1159 14.2127C36.1585 14.4549 36.1102 14.8406 36.0224 15.5409C35.9987 15.7296 35.9724 15.9399 35.9441 16.1762C35.7756 17.5865 36.5395 18.9096 37.8451 19.4686C37.9907 19.5309 38.1365 19.5928 38.2824 19.6544L35.6285 25.3545C35.5513 25.5202 35.521 25.7038 35.5409 25.8855C35.5608 26.0672 35.6301 26.2399 35.7413 26.385C35.8525 26.5301 36.0013 26.6419 36.1716 26.7083C36.3419 26.7747 36.5271 26.7932 36.7071 26.7617L39.5717 26.2611L41.0327 28.7754C41.1245 28.9334 41.2579 29.0633 41.4183 29.1509C41.5788 29.2385 41.7601 29.2804 41.9427 29.2721C42.1253 29.2638 42.3022 29.2056 42.454 29.1039C42.6058 29.0021 42.7269 28.8607 42.804 28.695L45.5235 22.8539C45.853 22.7577 46.0741 22.7064 46.2384 22.7064C46.4842 22.7064 46.8557 22.821 47.5301 23.029L47.6564 23.068L49.591 27.56C49.6633 27.7279 49.7802 27.8727 49.929 27.9788C50.0779 28.0849 50.2529 28.1481 50.4352 28.1617C50.6175 28.1752 50.8 28.1386 50.9628 28.0557C51.1257 27.9728 51.2628 27.8468 51.3591 27.6915L52.8924 25.2207L55.7411 25.8041C55.9201 25.8407 56.1058 25.8275 56.2778 25.7661C56.4499 25.7046 56.6019 25.5972 56.7172 25.4555C56.8326 25.3137 56.9069 25.1431 56.9321 24.9621C56.9573 24.7811 56.9324 24.5967 56.8602 24.4289L54.7081 19.4321C55.9661 18.8545 56.6979 17.558 56.5326 16.1761C56.5044 15.9397 56.478 15.7295 56.4544 15.5407C56.3665 14.8405 56.3182 14.4547 56.3609 14.2126C56.4034 13.9705 56.5809 13.6246 56.9029 12.9965ZM41.7994 26.114L40.9507 24.6536C40.848 24.4769 40.6935 24.3358 40.5081 24.2496C40.3228 24.1633 40.1154 24.1358 39.914 24.171L38.2501 24.4617L39.9869 20.7315C40.1035 20.8997 40.2404 21.111 40.4135 21.3792C40.5167 21.5391 40.6316 21.7171 40.7619 21.9162C41.3024 22.7426 42.1612 23.2457 43.0915 23.3384L41.7994 26.114ZM52.6107 23.1217C52.4104 23.0806 52.2023 23.1019 52.0145 23.1828C51.8267 23.2637 51.6682 23.4003 51.5605 23.5741L50.6699 25.0091L49.9082 23.2407C50.6314 23.0412 51.2774 22.5847 51.7146 21.9162C51.8313 21.7375 51.9475 21.5585 52.0631 21.3791C52.446 20.7862 52.6569 20.4596 52.8452 20.3015C52.8586 20.2902 52.875 20.279 52.8902 20.2677L54.2654 23.4605L52.6107 23.1217ZM55.4087 11.5241C55.3034 11.7326 55.2084 11.9177 55.1232 12.084C54.2751 13.7379 54.2385 13.9457 54.4697 15.7899C54.493 15.9752 54.519 16.1816 54.5466 16.4137C54.6099 16.943 54.3342 17.4205 53.8441 17.6302C53.6515 17.7126 53.4587 17.7943 53.2656 17.8755C51.5529 18.5972 51.3912 18.7329 50.383 20.2942C50.2695 20.4704 50.1554 20.6462 50.0409 20.8216C49.7492 21.2676 49.2306 21.4562 48.7207 21.3021C48.497 21.2345 48.2982 21.1731 48.1197 21.1181C46.3437 20.5701 46.1326 20.5702 44.3567 21.1181C44.1782 21.1731 43.9794 21.2345 43.7557 21.3021C43.2456 21.4564 42.7274 21.2679 42.4356 20.8217C42.3077 20.6262 42.1949 20.4514 42.0935 20.2945C41.0854 18.7331 40.9237 18.5975 39.211 17.8756C39.0389 17.803 38.8471 17.7222 38.6322 17.6302C38.1422 17.4204 37.8666 16.9429 37.9297 16.4136C37.9575 16.1816 37.9834 15.9752 38.0066 15.7899C38.2379 13.9457 38.2012 13.7379 37.3531 12.084C37.2574 11.8977 37.1622 11.711 37.0676 11.5241C36.8271 11.0485 36.9229 10.5055 37.3116 10.1407C37.482 9.98086 37.6345 9.83936 37.7715 9.71224C39.134 8.44824 39.2395 8.26549 39.6529 6.45361C39.6945 6.27136 39.7407 6.06861 39.794 5.84111C39.9156 5.32211 40.338 4.96761 40.8701 4.93811C41.0793 4.92657 41.2885 4.9157 41.4977 4.90549C43.3541 4.81311 43.5524 4.74086 45.0339 3.61849C45.2007 3.4918 45.368 3.36563 45.5356 3.23999C45.749 3.08036 45.9935 3.00049 46.2381 3.00049C46.4826 3.00049 46.7272 3.08036 46.9405 3.23999C47.1082 3.3656 47.2754 3.49177 47.4422 3.61849C48.9237 4.74086 49.122 4.81311 50.9784 4.90549C51.165 4.91474 51.3727 4.92511 51.606 4.93811C52.1381 4.96761 52.5605 5.32211 52.6821 5.84111C52.7354 6.06849 52.7816 6.27136 52.8232 6.45336C53.2366 8.26549 53.3421 8.44824 54.7046 9.71224C54.8416 9.83936 54.9941 9.98086 55.1646 10.1407C55.5535 10.5055 55.6492 11.0485 55.4087 11.5241ZM46.2384 5.09824C42.3347 5.09824 39.159 8.27399 39.159 12.1775C39.159 16.0811 42.3347 19.2569 46.2384 19.2569C50.142 19.2569 53.3177 16.0811 53.3177 12.1775C53.3177 8.27399 50.1419 5.09824 46.2384 5.09824ZM46.2384 17.2569C43.4376 17.2569 41.159 14.9782 41.159 12.1775C41.159 9.37674 43.4376 7.09824 46.2384 7.09824C49.0391 7.09824 51.3177 9.37686 51.3177 12.1775C51.3177 14.9782 49.0391 17.2569 46.2384 17.2569ZM49.9789 9.57686C50.0671 9.67411 50.1354 9.7878 50.1797 9.91142C50.224 10.035 50.2436 10.1662 50.2372 10.2974C50.2308 10.4285 50.1987 10.5572 50.1426 10.6759C50.0865 10.7947 50.0076 10.9012 49.9104 10.9895L45.6602 14.8465C45.4764 15.0137 45.2368 15.1062 44.9884 15.106C44.857 15.1061 44.7269 15.0804 44.6055 15.0301C44.4842 14.9798 44.3739 14.9061 44.2811 14.8131L42.5312 13.0632C42.4367 12.9708 42.3614 12.8605 42.3097 12.7387C42.2581 12.6169 42.2311 12.4861 42.2304 12.3539C42.2297 12.2216 42.2552 12.0905 42.3054 11.9682C42.3557 11.8458 42.4298 11.7347 42.5233 11.6412C42.6168 11.5476 42.7279 11.4736 42.8503 11.4233C42.9726 11.373 43.1037 11.3475 43.236 11.3483C43.3682 11.349 43.499 11.376 43.6208 11.4276C43.7426 11.4793 43.8529 11.5545 43.9454 11.6491L45.0215 12.7254L48.5661 9.50849C48.6634 9.4202 48.777 9.35193 48.9007 9.30758C49.0243 9.26324 49.1555 9.24368 49.2866 9.25003C49.4178 9.25638 49.5465 9.28851 49.6653 9.34459C49.784 9.40067 49.8906 9.4796 49.9789 9.57686Z" fill="#EA5413"/>
</svg>
