<svg width="64" height="64" viewBox="0 0 64 64" fill="none" xmlns="http://www.w3.org/2000/svg">
<path d="M60.278 40.1294H41.3208C39.8924 40.1294 38.7181 41.2356 38.6079 42.6361L33 37.0284V30.815H42.1425C42.4077 30.815 42.6621 30.7096 42.8496 30.5221C43.0371 30.3346 43.1425 30.0802 43.1425 29.815V27.5901C43.1425 26.1764 41.8159 25.0263 40.1851 25.0263H37.6917V23.3797H44.6325C46.4495 23.3797 47.9276 21.9016 47.9276 20.0847V4.29513C47.9276 2.47812 46.4495 1 44.6325 1H19.3676C17.5507 1 16.0725 2.47812 16.0725 4.29513V20.0846C16.0725 21.9015 17.5507 23.3796 19.3676 23.3796H26.3084V25.0261H23.815C22.1844 25.0261 20.8577 26.1763 20.8577 27.59V29.8149C20.8577 30.0801 20.9631 30.3344 21.1506 30.522C21.3382 30.7095 21.5925 30.8149 21.8577 30.8149H31V37.0283L25.392 42.6361C25.2817 41.2355 24.1076 40.1294 22.6793 40.1294H3.72213C2.22125 40.1294 1 41.3506 1 42.8515V54.6989C1 56.1999 2.22125 57.421 3.72213 57.421H8.6805V58.1571H7.05925C5.698 58.1571 4.59062 59.1321 4.59062 60.3305V62C4.59062 62.2652 4.69598 62.5196 4.88352 62.7071C5.07105 62.8946 5.32541 63 5.59062 63H20.811C21.0762 63 21.3306 62.8946 21.5181 62.7071C21.7056 62.5196 21.811 62.2652 21.811 62V60.3306C21.811 59.1322 20.7036 58.1572 19.3424 58.1572H17.721V57.4211H22.6794C24.1804 57.4211 25.4014 56.1999 25.4014 54.699V45.4555L32 38.8568L38.5986 45.4555V54.699C38.5986 56.2 39.8199 57.4211 41.3208 57.4211H46.279V58.1572H44.6576C43.2965 58.1572 42.1891 59.1322 42.1891 60.3306V62C42.1891 62.2652 42.2945 62.5196 42.482 62.7071C42.6696 62.8946 42.9239 63 43.1891 63H58.4095C58.6747 63 58.9291 62.8946 59.1166 62.7071C59.3041 62.5196 59.4095 62.2652 59.4095 62V60.3306C59.4095 59.1322 58.3021 58.1572 56.9409 58.1572H55.3195V57.4211H60.2779C61.7789 57.4211 62.9999 56.1999 62.9999 54.699V42.8516C63 41.3506 61.7789 40.1294 60.278 40.1294ZM18.0725 20.0847V4.29513C18.0725 3.581 18.6535 3 19.3676 3H44.6325C45.3466 3 45.9276 3.581 45.9276 4.29513V20.0846C45.9276 20.7987 45.3466 21.3796 44.6325 21.3796H19.3676C18.6536 21.3798 18.0725 20.7989 18.0725 20.0847ZM28.3085 23.3797H35.6916V25.0263H28.3085V23.3797ZM22.8576 27.5901C22.8576 27.3602 23.2305 27.0263 23.8149 27.0263H40.185C40.7695 27.0263 41.1424 27.3602 41.1424 27.5901V28.815H22.8576V27.5901ZM19.8109 60.3418V61H6.59062V60.3418C6.6205 60.2845 6.78975 60.1571 7.05925 60.1571H19.3424C19.6117 60.1572 19.781 60.2845 19.8109 60.3418ZM15.721 58.1572H10.6805V57.4211H15.7209L15.721 58.1572ZM22.6794 55.4211H3.72213C3.53067 55.4209 3.34711 55.3448 3.21172 55.2094C3.07634 55.074 3.0002 54.8905 3 54.699V42.8516C3.0002 42.6602 3.07634 42.4766 3.21172 42.3412C3.34711 42.2058 3.53067 42.1297 3.72213 42.1295H22.6793C22.8707 42.1297 23.0542 42.2059 23.1896 42.3413C23.3249 42.4767 23.4011 42.6602 23.4013 42.8516V54.6991C23.4011 54.8905 23.3249 55.074 23.1896 55.2094C23.0543 55.3447 22.8708 55.4209 22.6794 55.4211ZM57.4095 60.3418V61H44.1893V60.3418C44.2191 60.2845 44.3884 60.1571 44.6577 60.1571H56.941C57.2104 60.1572 57.3796 60.2845 57.4095 60.3418ZM53.3196 58.1572H48.2791V57.4211H53.3196V58.1572ZM61 54.699C60.9998 54.8904 60.9237 55.074 60.7883 55.2094C60.653 55.3447 60.4694 55.4209 60.278 55.4211H41.3208C41.1293 55.4209 40.9457 55.3448 40.8103 55.2094C40.675 55.074 40.5988 54.8905 40.5986 54.699V42.8515C40.5988 42.66 40.675 42.4765 40.8103 42.3411C40.9457 42.2057 41.1293 42.1296 41.3208 42.1294H60.2779C60.4693 42.1296 60.6528 42.2058 60.7882 42.3411C60.9235 42.4765 60.9997 42.6601 60.9999 42.8515V54.699H61ZM32 14.9671C30.5737 14.9671 29.4134 16.1275 29.4134 17.5539C29.4134 18.9801 30.5737 20.1404 32 20.1404C33.4263 20.1404 34.5866 18.9801 34.5866 17.5539C34.5866 16.1276 33.4263 14.9671 32 14.9671ZM32 18.1405C31.8445 18.1404 31.6954 18.0785 31.5854 17.9686C31.4754 17.8586 31.4135 17.7095 31.4134 17.554C31.4134 17.2304 31.6765 16.9673 32 16.9673C32.3235 16.9673 32.5866 17.2304 32.5866 17.554C32.5865 17.7095 32.5246 17.8586 32.4146 17.9686C32.3046 18.0785 32.1555 18.1404 32 18.1405ZM38.8686 11.0484C38.9994 11.1916 39.0856 11.3697 39.117 11.5611C39.1483 11.7524 39.1234 11.9487 39.0452 12.1262C38.967 12.3036 38.8389 12.4545 38.6765 12.5604C38.5141 12.6664 38.3244 12.7229 38.1305 12.723C37.9915 12.7232 37.854 12.6943 37.7269 12.6383C37.5997 12.5822 37.4856 12.5002 37.392 12.3975C35.9555 10.8251 34.0405 9.95912 32 9.95912C29.9596 9.95912 28.0446 10.8251 26.608 12.3975C26.4291 12.5933 26.1797 12.71 25.9148 12.7219C25.6498 12.7339 25.391 12.6401 25.1951 12.4613C24.9994 12.2823 24.8827 12.033 24.8707 11.768C24.8588 11.5031 24.9525 11.2442 25.1314 11.0484C26.9516 9.05625 29.391 7.95913 32 7.95913C34.6091 7.95913 37.0485 9.05625 38.8686 11.0484ZM41.2756 8.41387C41.4545 8.60971 41.5482 8.86856 41.5363 9.13351C41.5243 9.39846 41.4076 9.64782 41.2119 9.82675C41.016 10.0056 40.7572 10.0994 40.4922 10.0874C40.2273 10.0755 39.9779 9.95877 39.799 9.763C37.723 7.49075 34.9531 6.2395 32 6.23938C29.0469 6.23938 26.2771 7.49087 24.2009 9.763C24.1072 9.86571 23.9932 9.94772 23.866 10.0038C23.7388 10.0598 23.6014 10.0887 23.4624 10.0885C23.2685 10.0884 23.0788 10.0319 22.9164 9.92595C22.754 9.81999 22.6259 9.66911 22.5477 9.49168C22.4695 9.31425 22.4445 9.11791 22.4759 8.92655C22.5072 8.7352 22.5935 8.55708 22.7243 8.41387C25.184 5.72212 28.4784 4.23938 31.9999 4.23938H32C35.5219 4.23938 38.8159 5.72187 41.2756 8.41387ZM36.4614 13.683C36.5921 13.8262 36.6784 14.0043 36.7097 14.1957C36.7411 14.387 36.7161 14.5834 36.6379 14.7608C36.5597 14.9382 36.4316 15.0891 36.2692 15.1951C36.1068 15.301 35.9172 15.3575 35.7233 15.3576C35.5843 15.3578 35.4468 15.329 35.3196 15.273C35.1924 15.2169 35.0784 15.1349 34.9847 15.0321C34.1875 14.1595 33.1275 13.679 31.9999 13.679C30.8724 13.679 29.8124 14.1595 29.0151 15.0321C28.6426 15.4398 28.0101 15.468 27.6022 15.0959C27.4065 14.9169 27.2898 14.6676 27.2778 14.4026C27.2659 14.1377 27.3596 13.8788 27.5385 13.683C28.7192 12.3906 30.3038 11.679 31.9998 11.679C33.6961 11.679 35.2806 12.3906 36.4614 13.683Z" fill="#EA5413"/>
</svg>
