<svg width="64" height="64" viewBox="0 0 64 64" fill="none" xmlns="http://www.w3.org/2000/svg">
<path d="M44.6922 16.9489C47.7101 16.9489 50.1652 14.4937 50.1652 11.476C50.1652 8.45813 47.7101 6.00287 44.6922 6.00287C41.6743 6.00287 39.2192 8.45813 39.2192 11.476C39.2192 14.4937 41.6743 16.9489 44.6922 16.9489ZM44.6922 8.00288C46.6072 8.00288 48.1652 9.56087 48.1652 11.476C48.1652 13.391 46.6072 14.9489 44.6922 14.9489C42.7772 14.9489 41.2192 13.391 41.2192 11.476C41.2192 9.56087 42.7772 8.00288 44.6922 8.00288ZM50.1736 43.0275C49.8361 43.0275 49.5026 43.0448 49.1736 43.0776V19.5945L50.0801 19.9971C50.2648 20.0791 50.47 20.1033 50.6687 20.0663C50.8674 20.0294 51.0502 19.9332 51.1931 19.7903L53.0066 17.9766C53.1495 17.8337 53.2458 17.6509 53.2827 17.4522C53.3196 17.2535 53.2955 17.0483 53.2135 16.8636L52.7361 15.7889C53.0231 15.2551 53.2558 14.6939 53.4307 14.1136L54.5273 13.6915C54.7159 13.6189 54.8781 13.4909 54.9925 13.3243C55.1069 13.1577 55.1681 12.9603 55.1681 12.7583V10.1935C55.1681 9.99142 55.1069 9.79408 54.9925 9.62748C54.8781 9.46088 54.7159 9.33285 54.5273 9.26025L53.4311 8.83825C53.2562 8.25778 53.0234 7.69634 52.7363 7.16237L53.2135 6.08813C53.2955 5.90343 53.3196 5.69822 53.2827 5.49953C53.2458 5.30085 53.1495 5.11801 53.0066 4.97512L51.193 3.16162C51.0501 3.01872 50.8672 2.92246 50.6686 2.88553C50.4699 2.8486 50.2647 2.87273 50.08 2.95475L49.0052 3.43213C48.4714 3.14518 47.9102 2.91248 47.33 2.7375L46.9078 1.64087C46.8353 1.45226 46.7072 1.29006 46.5406 1.17566C46.374 1.06125 46.1767 1.00001 45.9746 1H43.4098C43.2078 1.00002 43.0104 1.06125 42.8438 1.17563C42.6772 1.29001 42.5492 1.45217 42.4766 1.64075L42.0545 2.7375C41.4742 2.91237 40.913 3.14508 40.3792 3.43213L39.3045 2.95475C39.1198 2.87273 38.9146 2.8486 38.7159 2.88553C38.5172 2.92246 38.3344 3.01872 38.1915 3.16162L37.7432 3.60987H5.97222C4.79647 3.60987 3.83984 4.56638 3.83984 5.74213V53.2842C3.83984 53.862 4.05584 54.3834 4.46447 54.792L10.8222 61.1497C11.2308 61.5583 11.7521 61.7743 12.3298 61.7743H45.3848C46.8522 62.5803 48.4996 63.002 50.1737 63.0001C55.6802 63.0001 60.16 58.5204 60.16 53.0139C60.16 47.5074 55.6801 43.0275 50.1736 43.0275ZM58.0955 52.0173L51.1736 52.0141V45.0923C54.7798 45.5451 57.6442 48.4104 58.0955 52.0173ZM40.0315 5.466C40.1799 5.53192 40.3422 5.56067 40.5043 5.54978C40.6664 5.53889 40.8234 5.48868 40.9617 5.4035C41.6032 5.008 42.3038 4.71754 43.037 4.54313C43.195 4.50553 43.3414 4.43 43.4637 4.32308C43.5859 4.21617 43.6803 4.08108 43.7386 3.9295L44.0965 3H45.2881L45.6458 3.9295C45.7042 4.08108 45.7985 4.21617 45.9208 4.32308C46.043 4.43 46.1895 4.50553 46.3475 4.54313C47.0806 4.71754 47.7812 5.008 48.4227 5.4035C48.5611 5.48859 48.7181 5.53875 48.8801 5.54963C49.0422 5.56052 49.2045 5.53182 49.353 5.466L50.2642 5.06125L51.1068 5.90375L50.7023 6.81462C50.6364 6.96309 50.6076 7.12539 50.6185 7.28748C50.6294 7.44957 50.6796 7.60656 50.7648 7.74487C51.1604 8.38648 51.4509 9.08719 51.6253 9.8205C51.6629 9.97852 51.7384 10.125 51.8454 10.2473C51.9523 10.3695 52.0874 10.4639 52.239 10.5223L53.1681 10.8799V12.0715L52.2386 12.4292C52.087 12.4876 51.9519 12.582 51.845 12.7043C51.7381 12.8265 51.6626 12.973 51.625 13.131C51.4505 13.8642 51.1601 14.5647 50.7646 15.2063C50.6794 15.3446 50.6293 15.5016 50.6184 15.6636C50.6075 15.8257 50.6362 15.988 50.7021 16.1365L51.1068 17.0479L50.2642 17.8905L49.3533 17.486C49.2049 17.42 49.0426 17.3912 48.8805 17.4021C48.7184 17.413 48.5614 17.4633 48.4231 17.5485C47.7815 17.944 47.0808 18.2345 46.3475 18.409C46.1895 18.4466 46.043 18.5221 45.9207 18.629C45.7984 18.7359 45.704 18.871 45.6457 19.0226L45.2881 19.9517H44.0965L43.7387 19.0222C43.6804 18.8707 43.586 18.7356 43.4637 18.6287C43.3414 18.5218 43.195 18.4462 43.037 18.4086C42.3038 18.2342 41.6032 17.9437 40.9617 17.5483C40.8234 17.4631 40.6664 17.413 40.5044 17.4021C40.3423 17.3912 40.18 17.42 40.0316 17.4859L39.1202 17.8906L38.2776 17.048L38.6821 16.1373C38.748 15.9888 38.7768 15.8265 38.7659 15.6644C38.7551 15.5023 38.7049 15.3453 38.6197 15.207C38.2242 14.5653 37.9336 13.8645 37.7591 13.1311C37.7215 12.9731 37.646 12.8267 37.5391 12.7044C37.4321 12.5822 37.297 12.4878 37.1455 12.4295L36.2163 12.0719V10.8802L37.1457 10.5225C37.2973 10.4642 37.4324 10.3698 37.5393 10.2476C37.6462 10.1253 37.7217 9.97887 37.7593 9.82088C37.9337 9.08764 38.2242 8.38701 38.6198 7.7455C38.705 7.60717 38.7552 7.45018 38.7661 7.2881C38.777 7.12602 38.7482 6.96373 38.6823 6.81525L38.2777 5.90413L39.1203 5.0615L40.0315 5.466ZM5.97222 5.60988H36.0897C36.077 5.77356 36.1049 5.93786 36.1711 6.08813L36.6483 7.16275C36.3613 7.69661 36.1286 8.25792 35.9536 8.83825L34.8571 9.26025C34.6685 9.33285 34.5063 9.46088 34.3919 9.62748C34.2776 9.79408 34.2163 9.99142 34.2163 10.1935V12.7584C34.2163 12.9605 34.2776 13.1578 34.3919 13.3244C34.5063 13.491 34.6685 13.619 34.8571 13.6916L35.9533 14.1135C36.0118 14.3048 36.0767 14.4941 36.1477 14.6811H14.3775C13.9561 13.3991 12.7485 12.4706 11.3273 12.4706C9.55709 12.4706 8.11684 13.9107 8.11684 15.6811C8.11684 17.4515 9.55697 18.8916 11.3273 18.8916C12.7485 18.8916 13.9561 17.9631 14.3775 16.6812H25.5067V18.8441C20.8151 19.2818 16.9947 22.7639 16.0475 27.2906H14.3776C13.9562 26.0086 12.7486 25.0801 11.3275 25.0801C9.55722 25.0801 8.11697 26.5203 8.11697 28.2906C8.11697 30.061 9.55709 31.5011 11.3275 31.5011C12.7486 31.5011 13.9562 30.5726 14.3776 29.2908H15.8256C15.8245 29.3546 15.8207 29.4179 15.8207 29.482C15.8207 32.0404 16.5331 33.4544 17.3388 34.8464H11.3273C11.0621 34.8464 10.8078 34.9517 10.6202 35.1393C10.4327 35.3268 10.3273 35.5812 10.3273 35.8464V38.605C9.04534 39.0264 8.11684 40.234 8.11684 41.6551C8.11684 43.4254 9.55697 44.8656 11.3273 44.8656C13.0976 44.8656 14.5377 43.4255 14.5377 41.6551C14.5377 40.234 13.6092 39.0264 12.3273 38.605V36.8462H18.44C19.0508 38.138 19.561 39.7873 19.7231 42.5019V44.0434C19.7231 45.1082 20.3731 46.024 21.2971 46.4151V47.1914C21.2971 48.2713 21.9663 49.1964 22.9113 49.5778V50.3395C22.9113 51.7588 24.066 52.9135 25.4853 52.9135H27.5281C28.9473 52.9135 30.1021 51.7589 30.1021 50.3395V49.5778C31.047 49.1964 31.7162 48.2713 31.7162 47.1914V46.4151C32.6402 46.0241 33.2902 45.1082 33.2902 44.0434V42.5036C33.4522 39.7879 33.9625 38.1383 34.5735 36.8461H40.686V38.6048C39.404 39.0261 38.4755 40.2338 38.4755 41.6549C38.4755 43.4251 39.9156 44.8654 41.686 44.8654C43.4563 44.8654 44.8965 43.4253 44.8965 41.6549C44.8965 40.2338 43.968 39.0261 42.686 38.6048V35.8461C42.686 35.5809 42.5806 35.3266 42.3931 35.139C42.2055 34.9515 41.9512 34.8461 41.686 34.8461H35.6747C36.4803 33.4541 37.1927 32.0403 37.1927 29.4818C37.1927 29.4176 37.189 29.3544 37.1878 29.2905H38.6358C39.0572 30.5724 40.2648 31.5009 41.686 31.5009C43.4562 31.5009 44.8965 30.0607 44.8965 28.2904C44.8965 26.52 43.4563 25.0799 41.686 25.0799C40.2648 25.0799 39.0571 26.0084 38.6358 27.2904H36.966C36.0187 22.7635 32.1983 19.2815 27.5067 18.8439V16.681H36.2522L36.1711 16.8636C36.089 17.0483 36.0649 17.2535 36.1018 17.4522C36.1387 17.6509 36.2349 17.8337 36.3778 17.9766L38.1915 19.7903C38.3344 19.9332 38.5172 20.0294 38.7159 20.0663C38.9146 20.1033 39.1198 20.0791 39.3045 19.9971L40.3793 19.5198C40.9132 19.8067 41.4744 20.0394 42.0546 20.2144L42.4767 21.311C42.5493 21.4996 42.6773 21.6618 42.8439 21.7762C43.0105 21.8906 43.2079 21.9518 43.41 21.9517H45.9748C46.1769 21.9518 46.3743 21.8905 46.5409 21.7761C46.7075 21.6618 46.8355 21.4996 46.9081 21.311L47.1737 20.6209V43.4888C43.1287 44.7656 40.1875 48.5524 40.1875 53.0139C40.1875 55.6195 41.1916 57.9943 42.8318 59.7743H12.8607V54.3195C12.8607 53.4559 12.1581 52.7534 11.2946 52.7534H5.83984V5.74213C5.83984 5.67037 5.90047 5.60988 5.97222 5.60988ZM33.7458 34.1838C32.841 35.7301 31.731 37.6269 31.3642 41.469H29.1793V32.8037H30.4302C32.2227 32.8037 33.6811 31.3454 33.6811 29.553C33.6811 27.7605 32.2227 26.3021 30.4302 26.3021C28.6377 26.3021 27.1793 27.7605 27.1793 29.553V30.8037H25.8341V29.553C25.8341 27.7605 24.3757 26.3021 22.5832 26.3021C20.7907 26.3021 19.3323 27.7605 19.3323 29.553C19.3323 31.3455 20.7907 32.8037 22.5832 32.8037H23.8341V41.469H21.6492C21.2825 37.627 20.1725 35.7301 19.2676 34.1838C18.4592 32.8021 17.8206 31.7109 17.8206 29.4816C17.8206 24.6921 21.7171 20.7955 26.5067 20.7955C31.2962 20.7955 35.1927 24.692 35.1927 29.4816C35.1927 31.711 34.5542 32.8021 33.7458 34.1838ZM24.9113 49.7651H28.102V50.3394C28.102 50.6505 27.8391 50.9134 27.528 50.9134H25.4852C25.1741 50.9134 24.9112 50.6505 24.9112 50.3394V49.7651H24.9113ZM29.7162 47.1912C29.7162 47.5024 29.4533 47.7651 29.1423 47.7651H23.8713C23.5601 47.7651 23.2972 47.5023 23.2972 47.1912V46.6171H29.7162V47.1912ZM31.2902 44.0433C31.2902 44.3544 31.0275 44.6171 30.7163 44.6171H22.2971C21.986 44.6171 21.7231 44.3543 21.7231 44.0433V43.469H31.2901L31.2902 44.0433ZM23.8341 30.8037H22.5832C21.8935 30.8037 21.3323 30.2426 21.3323 29.553C21.3323 28.8634 21.8935 28.3021 22.5832 28.3021C23.273 28.3021 23.8341 28.8632 23.8341 29.553V30.8037ZM27.1793 41.469H25.8341V32.8037H27.1793V41.469ZM29.1793 30.8037V29.553C29.1793 28.8632 29.7405 28.3021 30.4302 28.3021C31.12 28.3021 31.6811 28.8632 31.6811 29.553C31.6811 30.2428 31.12 30.8037 30.4302 30.8037H29.1793ZM12.5377 15.681C12.5377 16.3485 11.9947 16.8915 11.3273 16.8915C10.6598 16.8915 10.1168 16.3485 10.1168 15.681C10.1168 15.0135 10.6598 14.4705 11.3273 14.4705C11.9948 14.4705 12.5377 15.0135 12.5377 15.681ZM12.5377 28.2904C12.5377 28.9579 11.9947 29.5009 11.3273 29.5009C10.6598 29.5009 10.1168 28.9579 10.1168 28.2904C10.1168 27.6229 10.6598 27.0799 11.3273 27.0799C11.9948 27.08 12.5377 27.6229 12.5377 28.2904ZM11.3273 40.4444C11.9947 40.4444 12.5377 40.9874 12.5377 41.6549C12.5377 42.3224 11.9947 42.8654 11.3273 42.8654C10.6598 42.8654 10.1168 42.3224 10.1168 41.6549C10.1168 40.9874 10.66 40.4444 11.3273 40.4444ZM41.686 40.4444C42.3535 40.4444 42.8965 40.9874 42.8965 41.6549C42.8965 42.3224 42.3535 42.8654 41.686 42.8654C41.0185 42.8654 40.4755 42.3224 40.4755 41.6549C40.4755 40.9874 41.0185 40.4444 41.686 40.4444ZM40.4755 28.2904C40.4755 27.6229 41.0185 27.0799 41.686 27.0799C42.3535 27.0799 42.8965 27.6229 42.8965 28.2904C42.8965 28.9579 42.3535 29.5009 41.686 29.5009C41.0185 29.5009 40.4755 28.9579 40.4755 28.2904ZM7.25409 54.7533H10.8608V58.36L7.25409 54.7533ZM42.1872 53.0137C42.1872 48.949 45.2405 45.5861 49.1736 45.0924V53.0137C49.1736 53.192 49.2212 53.3669 49.3116 53.5205L53.3263 60.3501C52.3309 60.7797 51.2579 61.0009 50.1737 61C45.7698 61 42.1872 57.4174 42.1872 53.0137ZM55.0483 59.3331L51.9218 54.0145L58.0946 54.0173C57.8227 56.1739 56.6887 58.0648 55.0483 59.3331Z" fill="#EA5413"/>
</svg>
