<svg width="64" height="64" viewBox="0 0 64 64" fill="none" xmlns="http://www.w3.org/2000/svg">
<path d="M57.3473 11.7753L32.393 1.08081C32.2686 1.02749 32.1345 1 31.9991 1C31.8637 1 31.7297 1.02749 31.6052 1.08081L6.65105 11.7753C6.47117 11.8524 6.31787 11.9806 6.21013 12.144C6.10239 12.3073 6.04495 12.4987 6.04492 12.6944V33.0674C6.04492 40.3552 8.4863 47.0634 13.1049 52.4669C17.6277 57.7583 23.8182 61.3372 31.007 62.8167L31.7975 62.9793C31.9306 63.0068 32.0678 63.0068 32.2008 62.9793L32.9913 62.8167C40.1802 61.3372 46.3707 57.7583 50.8934 52.4669C55.5122 47.0633 57.9535 40.3551 57.9535 33.0674V12.6946C57.9535 12.4988 57.896 12.3074 57.7883 12.144C57.6805 11.9806 57.5272 11.8524 57.3473 11.7753ZM55.9534 33.0674C55.9534 46.8134 46.5635 57.9816 32.588 60.8578L31.9992 60.9791L31.4103 60.8578C17.4348 57.9816 8.04492 46.8134 8.04492 33.0674V13.3538L31.9992 3.08781L55.9534 13.3538V33.0674ZM31.6052 5.34693L10.5722 14.3611C10.3923 14.4382 10.239 14.5663 10.1312 14.7297C10.0235 14.8931 9.96607 15.0845 9.96605 15.2802V33.0674C9.96605 39.4563 12.1108 45.3172 16.1684 50.0161C20.1142 54.5854 25.5187 57.6838 31.7975 58.9761C31.9306 59.0033 32.0678 59.0033 32.2008 58.9761C38.4797 57.6838 43.884 54.5854 47.8299 50.0161C51.8875 45.3172 54.0323 39.4563 54.0323 33.0674V15.2802C54.0323 15.0845 53.9749 14.8931 53.8671 14.7297C53.7594 14.5663 53.6061 14.4381 53.4262 14.3611L32.393 5.34693C32.2686 5.29362 32.1345 5.26612 31.9991 5.26612C31.8637 5.26612 31.7297 5.29362 31.6052 5.34693ZM52.0322 15.9396V33.0674C52.0322 44.8358 43.9908 54.4192 31.9992 56.9748C20.0074 54.4192 11.9662 44.8358 11.9662 33.0674V15.9396L31.9992 7.35406L52.0322 15.9396ZM29.0213 13.2929C28.2335 13.8897 27.838 14.1893 27.4903 14.3159C27.1425 14.4424 26.647 14.4672 25.6599 14.5163C25.4109 14.5287 25.1338 14.5426 24.8225 14.5598C23.1005 14.6556 21.6793 15.8482 21.2859 17.5273C21.2148 17.8308 21.1532 18.1014 21.0977 18.3444C20.8778 19.3081 20.7674 19.7918 20.5824 20.1123C20.3974 20.4327 20.0338 20.7702 19.3092 21.4423C19.1264 21.6118 18.9229 21.8007 18.6955 22.0141C17.4379 23.1943 17.1158 25.0214 17.8939 26.5606C18.0345 26.8388 18.1612 27.0858 18.2749 27.3076C18.7258 28.1871 18.9522 28.6284 19.0165 28.9929C19.0809 29.3574 19.019 29.8497 18.896 30.8303C18.865 31.0777 18.8305 31.3531 18.7935 31.6626C18.5888 33.3751 19.5165 34.9818 21.1019 35.6607C21.3885 35.7834 21.6444 35.8913 21.8742 35.9881L21.9737 36.0301L18.352 43.8088C18.2749 43.9745 18.2447 44.1581 18.2646 44.3398C18.2845 44.5214 18.3538 44.6942 18.465 44.8392C18.5762 44.9843 18.7249 45.0961 18.8952 45.1625C19.0655 45.2289 19.2506 45.2474 19.4307 45.2159L23.4068 44.5212L25.4347 48.0109C25.5265 48.169 25.6599 48.2988 25.8203 48.3864C25.9807 48.4739 26.1621 48.5158 26.3447 48.5075C26.5272 48.4992 26.7041 48.4411 26.8559 48.3394C27.0077 48.2376 27.1288 48.0963 27.2059 47.9306L30.8362 40.1329C31.3854 39.9688 31.7215 39.8866 31.999 39.8866C32.3692 39.8866 32.8432 40.0328 33.7877 40.3242L34.0912 40.4177L36.6887 46.4484C36.761 46.6163 36.8779 46.7611 37.0267 46.8672C37.1755 46.9732 37.3506 47.0365 37.5328 47.05C37.7151 47.0636 37.8976 47.027 38.0605 46.9441C38.2234 46.8613 38.3604 46.7353 38.4568 46.5801L40.585 43.1504L44.5392 43.9603C44.7182 43.9969 44.9038 43.9837 45.0759 43.9223C45.248 43.8608 45.3999 43.7534 45.5153 43.6117C45.6306 43.4699 45.7049 43.2993 45.7301 43.1183C45.7553 42.9373 45.7305 42.7529 45.6583 42.5851L42.7102 35.7401L42.8964 35.6606C44.4818 34.9816 45.4094 33.3749 45.2048 31.6624C45.1678 31.3528 45.1333 31.0774 45.1023 30.8302C44.9793 29.8494 44.9175 29.3573 44.9818 28.9928C45.046 28.6283 45.2724 28.1869 45.7234 27.3074C45.8372 27.0857 45.9638 26.8387 46.1044 26.5603C46.8824 25.0211 46.5602 23.1939 45.3027 22.0138C45.0987 21.8226 44.8942 21.632 44.689 21.4421C43.9646 20.7699 43.6008 20.4324 43.4158 20.1119C43.2308 19.7916 43.1204 19.3078 42.9005 18.3443C42.8386 18.0717 42.7758 17.7993 42.7123 17.5271C42.3189 15.8478 40.8977 14.6553 39.1757 14.5596C38.8644 14.5423 38.5872 14.5284 38.3383 14.5161C37.3512 14.4669 36.8557 14.4422 36.5079 14.3157C36.1602 14.1891 35.7648 13.8894 34.9769 13.2927C34.7783 13.1421 34.5569 12.9746 34.3074 12.7877C32.9269 11.7542 31.0714 11.7542 29.6908 12.7877C29.4671 12.9554 29.244 13.1238 29.0213 13.2929ZM26.2013 45.3496L24.7858 42.9137C24.6831 42.7369 24.5286 42.5958 24.3432 42.5095C24.1578 42.4233 23.9505 42.3959 23.749 42.4311L20.9738 42.9159L23.7265 37.0032C23.9502 37.2593 24.2039 37.6521 24.614 38.2872C24.7493 38.4966 24.8998 38.7298 25.0704 38.9907C25.7997 40.1057 27.0059 40.7381 28.278 40.7379C28.3018 40.7379 28.3257 40.7358 28.3494 40.7353L26.2013 45.3496ZM40.3034 41.0514C40.1031 41.0104 39.895 41.0317 39.7072 41.1126C39.5194 41.1935 39.361 41.3301 39.2532 41.5038L37.7677 43.8977L36.3812 40.6786C37.4005 40.4993 38.3264 39.9101 38.9277 38.9908C39.0983 38.7298 39.2489 38.4966 39.3842 38.2872C39.9203 37.4569 40.1894 37.0402 40.4728 36.8024C40.5787 36.7136 40.7089 36.6311 40.8778 36.5424L43.0633 41.6168L40.3034 41.0514ZM30.8893 14.3889C31.2264 14.1366 31.6128 14.0104 31.9992 14.0104C32.3854 14.0104 32.7719 14.1366 33.1089 14.3889C33.355 14.5732 33.5732 14.7384 33.7692 14.8869C35.6602 16.3197 35.8692 16.3957 38.2388 16.5138C38.4843 16.5261 38.7577 16.5397 39.0645 16.5567C39.9054 16.6034 40.5729 17.1634 40.765 17.9834C40.8352 18.2828 40.896 18.5497 40.9507 18.7893C41.4783 21.1023 41.5894 21.2948 43.3288 22.9084C43.5089 23.0757 43.7097 23.2618 43.9339 23.4723C44.5479 24.0486 44.6993 24.9067 44.3193 25.6582C44.1807 25.9326 44.0557 26.1762 43.9435 26.3949C42.8609 28.5061 42.8223 28.7251 43.1177 31.0792C43.1483 31.3231 43.1823 31.5947 43.2188 31.8998C43.3187 32.7361 42.883 33.4906 42.1089 33.8221C41.8554 33.9304 41.6016 34.038 41.3475 34.1449C39.1612 35.0663 38.9909 35.2092 37.704 37.2022C37.5707 37.4087 37.4222 37.6387 37.2538 37.8961C36.7928 38.6008 35.9742 38.8988 35.1679 38.6553C34.8737 38.5664 34.612 38.4857 34.3772 38.4132C32.11 37.7136 31.8878 37.7136 29.6208 38.4132C29.3859 38.4857 29.1243 38.5664 28.83 38.6553C28.0239 38.8988 27.2052 38.6008 26.7443 37.8961C26.576 37.6388 26.4275 37.4088 26.2942 37.2023C25.0072 35.2092 24.8369 35.0663 22.6507 34.1451C22.4242 34.0496 22.1718 33.9433 21.8892 33.8222C21.115 33.4907 20.6794 32.7362 20.7793 31.8999C20.8158 31.5947 20.8498 31.3231 20.8804 31.0792C21.1757 28.7251 21.137 28.5062 20.0545 26.3951C19.9286 26.1498 19.8034 25.9042 19.6788 25.6583C19.2988 24.9068 19.45 24.0488 20.0642 23.4724C20.2884 23.2619 20.4892 23.0758 20.6694 22.9086C22.4087 21.2951 22.5198 21.1026 23.0474 18.7893C23.1022 18.5497 23.163 18.2828 23.233 17.9836C23.4252 17.1636 24.0925 16.6036 24.9335 16.5568C25.2405 16.5397 25.5139 16.5261 25.7593 16.5139C28.1289 16.3959 28.3378 16.3198 30.2289 14.8871C30.4249 14.7386 30.6432 14.5732 30.8893 14.3889ZM23.0168 26.3748C23.0168 31.3277 27.0462 35.3572 31.999 35.3572C36.9519 35.3572 40.9813 31.3277 40.9813 26.3748C40.9813 21.4219 36.9519 17.3926 31.999 17.3926C27.0463 17.3926 23.0168 21.4219 23.0168 26.3748ZM31.999 19.3926C35.849 19.3926 38.9813 22.5248 38.9813 26.3748C38.9813 30.2249 35.849 33.3572 31.999 33.3572C28.149 33.3572 25.0168 30.2249 25.0168 26.3748C25.0168 22.5248 28.149 19.3926 31.999 19.3926ZM26.9809 25.9246C27.1685 25.737 27.4228 25.6317 27.688 25.6317C27.9532 25.6317 28.2075 25.737 28.395 25.9246L30.236 27.7656L35.6382 22.8631C35.8346 22.6848 36.0938 22.5919 36.3587 22.6047C36.6236 22.6176 36.8726 22.7351 37.0508 22.9316C37.229 23.128 37.322 23.3871 37.3091 23.6521C37.2963 23.917 37.1787 24.1659 36.9823 24.3442L30.8747 29.8869C30.6909 30.0541 30.4513 30.1467 30.2028 30.1464C30.0714 30.1466 29.9413 30.1208 29.82 30.0705C29.6986 30.0203 29.5883 29.9465 29.4955 29.8536L26.9809 27.3389C26.7934 27.1514 26.6881 26.897 26.6881 26.6317C26.6881 26.3665 26.7934 26.1121 26.9809 25.9246Z" fill="#EA5413"/>
</svg>
